<svg fill="#C02424" xmlns="http://www.w3.org/2000/svg" viewBox="0 0 48 48"><title>iStock-954275248 [Converted]</title><g id="icon"><path d="M39,13.75H7a.75.75,0,0,1,0-1.5H39a.75.75,0,0,1,0,1.5Z"/><path d="M13,23.75a.74.74,0,0,1-.53-.22l-2-2a.75.75,0,0,1,0-1.06l2-2a.75.75,0,0,1,1.06,1.06L12.06,21l1.47,1.47a.75.75,0,0,1,0,1.06A.74.74,0,0,1,13,23.75Z"/><path d="M21,23.75a.74.74,0,0,1-.53-.22.75.75,0,0,1,0-1.06L21.94,21l-1.47-1.47a.75.75,0,0,1,1.06-1.06l2,2a.75.75,0,0,1,0,1.06l-2,2A.74.74,0,0,1,21,23.75Z"/><path d="M16,25.75l-.18,0a.76.76,0,0,1-.55-.91l2-8a.75.75,0,1,1,1.46.36l-2,8A.76.76,0,0,1,16,25.75Z"/><path d="M23,36.75H10A3.75,3.75,0,0,1,6.25,33V11A3.75,3.75,0,0,1,10,7.25H36A3.75,3.75,0,0,1,39.75,11v9a.75.75,0,0,1-1.5,0V11A2.25,2.25,0,0,0,36,8.75H10A2.25,2.25,0,0,0,7.75,11V33A2.25,2.25,0,0,0,10,35.25H23a.75.75,0,0,1,0,1.5Z"/><path d="M34,29.75c-3.85,0-7.75-1.12-7.75-3.25s3.9-3.25,7.75-3.25,7.75,1.12,7.75,3.25S37.85,29.75,34,29.75Zm0-5c-4.12,0-6.25,1.23-6.25,1.75s2.13,1.75,6.25,1.75S40.25,27,40.25,26.5,38.12,24.75,34,24.75Z"/><path d="M34,34.93c-3.85,0-7.75-1.15-7.75-3.34V27a.75.75,0,0,1,1.5,0v4.59c0,.65,2.37,1.84,6.25,1.84s6.25-1.19,6.25-1.84V27a.75.75,0,0,1,1.5,0v4.59C41.75,33.78,37.85,34.93,34,34.93Z"/><path d="M34,40.75c-3.85,0-7.75-1.15-7.75-3.35V32a.75.75,0,0,1,1.5,0v5.4c0,.65,2.37,1.85,6.25,1.85s6.25-1.2,6.25-1.85V32a.75.75,0,0,1,1.5,0v5.4C41.75,39.6,37.85,40.75,34,40.75Z"/></g></svg>