<svg fill="#C02424" xmlns="http://www.w3.org/2000/svg" viewBox="0 0 48 48"><title>iStock-951865160 [Converted]</title><g id="icon"><path d="M30,36.75H22a.76.76,0,0,1-.75-.75V32.76a2,2,0,0,0-2-2H16a.76.76,0,0,1-.75-.75V26a.75.75,0,0,1,1.5,0v3.25h2.49a3.51,3.51,0,0,1,3.51,3.51v2.49H30a.75.75,0,0,1,0,1.5Z"/><path d="M7,41.75A.76.76,0,0,1,6.25,41V35a.75.75,0,0,1,1.5,0v6A.76.76,0,0,1,7,41.75Z"/><path d="M3,41.75A.76.76,0,0,1,2.25,41V32.76a3.51,3.51,0,0,1,3.51-3.51H8.25V26a.75.75,0,0,1,1.5,0v4a.76.76,0,0,1-.75.75H5.76a2,2,0,0,0-2,2V41A.76.76,0,0,1,3,41.75Z"/><path d="M12.5,28a6.25,6.25,0,0,1-6.25-6.25V16.13a3.88,3.88,0,0,1,3.88-3.88h4.74a3.88,3.88,0,0,1,3.88,3.88v5.58A6.25,6.25,0,0,1,12.5,28ZM10.13,13.75a2.39,2.39,0,0,0-2.38,2.38v5.58a4.75,4.75,0,0,0,9.5,0V16.13a2.39,2.39,0,0,0-2.38-2.38Z"/><path d="M10,20.75H7a.75.75,0,0,1,0-1.5H9.25V18a.76.76,0,0,1,.75-.75h7a.75.75,0,0,1,0,1.5H10.75V20A.76.76,0,0,1,10,20.75Z"/><path d="M12.24,32.61A6,6,0,0,1,8.05,30.9a.75.75,0,1,1,1-1.07,4.51,4.51,0,0,0,6.5-.21.75.75,0,0,1,1.06-.06.76.76,0,0,1,.05,1.06A6,6,0,0,1,12.24,32.61Z"/><path d="M45,40.75H18a.76.76,0,0,1-.75-.75V35a.75.75,0,0,1,1.5,0v4.25h25.5V7.75H8.75V11a.75.75,0,0,1-1.5,0V7A.76.76,0,0,1,8,6.25H45a.76.76,0,0,1,.75.75V40A.76.76,0,0,1,45,40.75Z"/><path d="M40,19.75H25a.75.75,0,0,1,0-1.5H40a.75.75,0,0,1,0,1.5Z"/><path d="M40,15.75H25a.75.75,0,0,1,0-1.5H40a.75.75,0,0,1,0,1.5Z"/><path d="M35,27.75H25a.75.75,0,0,1,0-1.5H35a.75.75,0,0,1,0,1.5Z"/><path d="M40,23.75H25a.75.75,0,0,1,0-1.5H40a.75.75,0,0,1,0,1.5Z"/></g></svg>