<svg fill="#C02424" xmlns="http://www.w3.org/2000/svg" viewBox="0 0 48 48"><title>iStock-951868954 [Converted]</title><g id="icon"><path d="M27,44.75a.76.76,0,0,1-.75-.75V33a.75.75,0,0,1,1.5,0V44A.76.76,0,0,1,27,44.75Z"/><path d="M27,22.75a.76.76,0,0,1-.75-.75V18a.75.75,0,0,1,1.5,0v4A.76.76,0,0,1,27,22.75Z"/><path d="M27,8.75A.76.76,0,0,1,26.25,8V4.75h-2.5V8a.75.75,0,0,1-1.5,0V4A.76.76,0,0,1,23,3.25h4a.76.76,0,0,1,.75.75V8A.76.76,0,0,1,27,8.75Z"/><path d="M23,22.75a.76.76,0,0,1-.75-.75V18a.75.75,0,0,1,1.5,0v4A.76.76,0,0,1,23,22.75Z"/><path d="M23,44.75a.76.76,0,0,1-.75-.75V33a.75.75,0,0,1,1.5,0V44A.76.76,0,0,1,23,44.75Z"/><path d="M38,18.75H12a.75.75,0,0,1-.53-.22l-5-5a.75.75,0,0,1,0-1.06l5-5A.75.75,0,0,1,12,7.25H38a.76.76,0,0,1,.75.75V18A.76.76,0,0,1,38,18.75Zm-25.69-1.5H37.25V8.75H12.31L8.06,13Z"/><path d="M36,32.75H11a.76.76,0,0,1-.75-.75V22a.76.76,0,0,1,.75-.75H36a.75.75,0,0,1,.53.22l5,5a.75.75,0,0,1,0,1.06l-5,5A.75.75,0,0,1,36,32.75Zm-24.25-1.5H35.69L39.94,27l-4.25-4.25H11.75Z"/></g></svg>