<svg fill="#C02424" xmlns="http://www.w3.org/2000/svg" viewBox="0 0 48 48"><title>iStock-954275292 [Converted]</title><g id="icon"><path d="M41,30.75a.76.76,0,0,1-.75-.75V10.75H7.75V30a.75.75,0,0,1-1.5,0V10A.76.76,0,0,1,7,9.25H41a.76.76,0,0,1,.75.75V30A.76.76,0,0,1,41,30.75Z"/><path d="M16,38.75a.76.76,0,0,1-.75-.75V35.82a1.07,1.07,0,0,0-1.07-1.07H7.82a1.07,1.07,0,0,0-1.07,1.07V38a.75.75,0,0,1-1.5,0V35.82a2.57,2.57,0,0,1,2.57-2.57h6.36a2.57,2.57,0,0,1,2.57,2.57V38A.76.76,0,0,1,16,38.75Z"/><path d="M29,38.75a.76.76,0,0,1-.75-.75V35.82a1.07,1.07,0,0,0-1.07-1.07H20.82a1.07,1.07,0,0,0-1.07,1.07V38a.75.75,0,0,1-1.5,0V35.82a2.57,2.57,0,0,1,2.57-2.57h6.36a2.57,2.57,0,0,1,2.57,2.57V38A.76.76,0,0,1,29,38.75Z"/><path d="M23,31.75a.76.76,0,0,1-.75-.75V28.82a1.07,1.07,0,0,0-1.07-1.07H14.82a1.07,1.07,0,0,0-1.07,1.07V31a.75.75,0,0,1-1.5,0V28.82a2.57,2.57,0,0,1,2.57-2.57h6.36a2.57,2.57,0,0,1,2.57,2.57V31A.76.76,0,0,1,23,31.75Z"/><path d="M37,31.75a.76.76,0,0,1-.75-.75V28.82a1.07,1.07,0,0,0-1.07-1.07H28.82a1.07,1.07,0,0,0-1.07,1.07V31a.75.75,0,0,1-1.5,0V28.82a2.57,2.57,0,0,1,2.57-2.57h6.36a2.57,2.57,0,0,1,2.57,2.57V31A.76.76,0,0,1,37,31.75Z"/><path d="M42,38.75a.76.76,0,0,1-.75-.75V35.82a1.07,1.07,0,0,0-1.07-1.07H33.82a1.07,1.07,0,0,0-1.07,1.07V38a.75.75,0,0,1-1.5,0V35.82a2.57,2.57,0,0,1,2.57-2.57h6.36a2.57,2.57,0,0,1,2.57,2.57V38A.76.76,0,0,1,42,38.75Z"/></g></svg>