<svg fill="#C02424" xmlns="http://www.w3.org/2000/svg" viewBox="0 0 48 48"><title>iStock-953869708 [Converted]</title><g id="icon"><path d="M11.58,34.41c-2,0-3.5-1.81-3.5-4.2a3.51,3.51,0,1,1,7,0C15.09,32.6,13.58,34.41,11.58,34.41Zm0-6.21a2,2,0,0,0-2,2c0,1.56.84,2.7,2,2.7s2-1.14,2-2.7A2,2,0,0,0,11.58,28.2Z"/><path d="M17.1,41.3h-11a.74.74,0,0,1-.75-.75V37.26a2.12,2.12,0,0,1,1.26-1.95,12.38,12.38,0,0,1,5-1,12.09,12.09,0,0,1,5,1,2.12,2.12,0,0,1,1.25,1.94v3.3A.74.74,0,0,1,17.1,41.3ZM6.82,39.8h9.53V37.25a.62.62,0,0,0-.36-.57,10.63,10.63,0,0,0-4.38-.89,11,11,0,0,0-4.43.89.63.63,0,0,0-.36.58Z"/><path d="M36.42,34.41c-2,0-3.51-1.81-3.51-4.2a3.51,3.51,0,1,1,7,0C39.92,32.6,38.42,34.41,36.42,34.41Zm0-6.21a2,2,0,0,0-2,2c0,1.56.84,2.7,2,2.7s2-1.14,2-2.7A2,2,0,0,0,36.42,28.2Z"/><path d="M41.93,41.3h-11a.74.74,0,0,1-.75-.75V37.26a2.12,2.12,0,0,1,1.26-1.95,12.4,12.4,0,0,1,5-1,12.16,12.16,0,0,1,5,1,2.11,2.11,0,0,1,1.24,1.94v3.3A.74.74,0,0,1,41.93,41.3ZM31.65,39.8h9.53V37.25a.62.62,0,0,0-.36-.57,10.57,10.57,0,0,0-4.37-.89,10.94,10.94,0,0,0-4.43.89.63.63,0,0,0-.37.58Z"/><path d="M30.9,41.3H17.1a.75.75,0,0,1-.75-.75V36.43a2.48,2.48,0,0,1,1.47-2.26A15.35,15.35,0,0,1,24,32.91a15,15,0,0,1,6.16,1.26,2.46,2.46,0,0,1,1.45,2.25v4.13A.75.75,0,0,1,30.9,41.3Zm-13-1.5h12.3V36.42a1,1,0,0,0-.57-.88A13.43,13.43,0,0,0,24,34.41a13.91,13.91,0,0,0-5.62,1.13,1,1,0,0,0-.57.89Z"/><path d="M24,33c-2.39,0-4.2-2.14-4.2-5a4.2,4.2,0,0,1,8.4,0C28.2,30.89,26.39,33,24,33Zm0-7.59a2.67,2.67,0,0,0-2.7,2.62c0,2,1.14,3.47,2.7,3.47s2.7-1.46,2.7-3.47A2.67,2.67,0,0,0,24,25.44Z"/><path d="M37.8,26.13a.75.75,0,0,1-.53-.22l-2.54-2.54H32.28a2.13,2.13,0,0,1-2.13-2.13v-.69a.75.75,0,0,1,1.5,0v.69a.63.63,0,0,0,.63.63H35a.75.75,0,0,1,.53.22l1.48,1.48v-.95a.75.75,0,0,1,.75-.75h2.75a.63.63,0,0,0,.63-.63V15.72a.63.63,0,0,0-.63-.63h-6.2a.75.75,0,0,1,0-1.5h6.2a2.13,2.13,0,0,1,2.13,2.13v5.52a2.13,2.13,0,0,1-2.13,2.13h-2v2a.75.75,0,0,1-.47.69A.71.71,0,0,1,37.8,26.13Z"/><path d="M10.2,26.13a.71.71,0,0,1-.28-.06.75.75,0,0,1-.47-.69v-2h-2a2.13,2.13,0,0,1-2.13-2.13V15.72a2.13,2.13,0,0,1,2.13-2.13h6.2a.75.75,0,1,1,0,1.5H7.45a.63.63,0,0,0-.63.63v5.52a.63.63,0,0,0,.63.63H10.2a.75.75,0,0,1,.75.75v.95l1.48-1.48a.75.75,0,0,1,.53-.22h2.76a.63.63,0,0,0,.63-.63v-.69a.75.75,0,0,1,1.5,0v.69a2.13,2.13,0,0,1-2.13,2.13H13.27l-2.54,2.54A.75.75,0,0,1,10.2,26.13Z"/><path d="M24,22.68a.75.75,0,0,1-.64-.36l-1.85-3.09H17.1A2.13,2.13,0,0,1,15,17.1V8.82A2.13,2.13,0,0,1,17.1,6.7H30.9A2.13,2.13,0,0,1,33,8.82V17.1a2.13,2.13,0,0,1-2.13,2.13H26.49l-1.85,3.09A.75.75,0,0,1,24,22.68ZM17.1,8.2a.63.63,0,0,0-.63.62V17.1a.63.63,0,0,0,.63.63h4.83a.74.74,0,0,1,.64.37L24,20.47l1.43-2.37a.74.74,0,0,1,.64-.37H30.9a.63.63,0,0,0,.63-.63V8.82a.63.63,0,0,0-.63-.62Z"/></g></svg>