<svg fill="#C02424" xmlns="http://www.w3.org/2000/svg" viewBox="0 0 48 48"><title>iStock-951865292 [Converted]</title><g id="icon"><path d="M31,33.75H4.85a2.61,2.61,0,0,1-2.6-2.6V10.85a2.61,2.61,0,0,1,2.6-2.6H37a2.8,2.8,0,0,1,2.8,2.8V14a.75.75,0,0,1-1.5,0V11.05A1.3,1.3,0,0,0,37,9.75H4.85a1.1,1.1,0,0,0-1.1,1.1v20.3a1.1,1.1,0,0,0,1.1,1.1H31a.75.75,0,0,1,0,1.5Z"/><path d="M31,28.75H3a.75.75,0,0,1,0-1.5H31a.75.75,0,0,1,0,1.5Z"/><path d="M14.56,39.75a.72.72,0,0,1-.57-.27.76.76,0,0,1,.09-1.06l3-2.47a.64.64,0,0,0,.19-.52V33a.74.74,0,0,1,.74-.75h0a.76.76,0,0,1,.75.75v2.42A2.05,2.05,0,0,1,18,37.14L15,39.58A.78.78,0,0,1,14.56,39.75Z"/><path d="M26.44,39.75a.78.78,0,0,1-.48-.17L23,37.1a2,2,0,0,1-.73-1.67V33a.76.76,0,0,1,.75-.75h0a.75.75,0,0,1,.75.75v2.43a.68.68,0,0,0,.14.48l3,2.51A.76.76,0,0,1,27,39.48.72.72,0,0,1,26.44,39.75Z"/><path d="M27,39.75H14a.75.75,0,0,1,0-1.5H27a.75.75,0,0,1,0,1.5Z"/><path d="M43.76,39.75H32.24a2,2,0,0,1-2-2V16.24a2,2,0,0,1,2-2H43.76a2,2,0,0,1,2,2V37.76A2,2,0,0,1,43.76,39.75Zm-11.52-24a.49.49,0,0,0-.49.49V37.76a.49.49,0,0,0,.49.49H43.76a.49.49,0,0,0,.49-.49V16.24a.49.49,0,0,0-.49-.49Z"/><path d="M45,18.75H31a.75.75,0,0,1,0-1.5H45a.75.75,0,0,1,0,1.5Z"/><path d="M45,34.75H31a.75.75,0,0,1,0-1.5H45a.75.75,0,0,1,0,1.5Z"/><path d="M40,36.75H38a.75.75,0,0,1,0-1.5h2a.75.75,0,0,1,0,1.5Z"/><path d="M17.61,24.44a.73.73,0,0,1-.53-.22L14.88,22a.77.77,0,0,1-.22-.53.75.75,0,0,1,.22-.53l2.2-2.2a.75.75,0,1,1,1.06,1.06L16.48,21.5l1.66,1.66a.75.75,0,0,1,0,1.06A.74.74,0,0,1,17.61,24.44Z"/><path d="M21.9,21.75H16a.75.75,0,0,1,0-1.5h5.9a1.36,1.36,0,0,0,1.35-1.35.75.75,0,0,1,1.5,0A2.86,2.86,0,0,1,21.9,21.75Z"/><path d="M21.23,18.51a.74.74,0,0,1-.53-.22.75.75,0,0,1,0-1.06l1.67-1.66L20.7,13.91a.75.75,0,0,1,0-1.06.74.74,0,0,1,1.06,0L24,15a.75.75,0,0,1,0,1.06l-2.2,2.19A.71.71,0,0,1,21.23,18.51Z"/><path d="M14.55,18.85a.76.76,0,0,1-.75-.75,2.86,2.86,0,0,1,2.85-2.85H22a.75.75,0,0,1,0,1.5H16.65A1.36,1.36,0,0,0,15.3,18.1.76.76,0,0,1,14.55,18.85Z"/><path d="M37.21,28.78a.77.77,0,0,1-.53-.21l-2.34-2.31a.75.75,0,0,1,1-1.07L37.21,27l4.13-4.06a.75.75,0,1,1,1,1.07l-4.66,4.58A.73.73,0,0,1,37.21,28.78Z"/></g></svg>